<svg fill="none" height="188" viewBox="0 0 168 188" width="168" xmlns="http://www.w3.org/2000/svg" xmlns:xlink="http://www.w3.org/1999/xlink"><pattern id="a" height="1" patternContentUnits="objectBoundingBox" width="1"/><clipPath id="b"><rect height="156" rx="4" width="140" x="14" y="16"/></clipPath><path d="m17.5 7c3.5899 0 6.5-2.91015 6.5-6.5 0-.168236-.0064-.334979-.0189-.5h9.0378c-.0125.165021-.0189.331764-.0189.5 0 3.58985 2.9101 6.5 6.5 6.5s6.5-2.91015 6.5-6.5c0-.168236-.0064-.334979-.0189-.5h9.0378c-.0125.165021-.0189.331764-.0189.5 0 3.58985 2.9101 6.5 6.5 6.5s6.5-2.91015 6.5-6.5c0-.168236-.0064-.334979-.0189-.5h9.0378c-.0125.165021-.0189.331764-.0189.5 0 3.58985 2.9101 6.5 6.5 6.5s6.5-2.91015 6.5-6.5c0-.168236-.0064-.334979-.0189-.5h9.0378c-.0125.165021-.0189.331764-.0189.5 0 3.58985 2.91 6.5 6.5 6.5s6.5-2.91015 6.5-6.5c0-.168236-.006-.334979-.019-.5h9.038c-.013.165021-.019.331764-.019.5 0 3.58985 2.91 6.5 6.5 6.5s6.5-2.91015 6.5-6.5c0-.168236-.006-.334979-.019-.5h9.038c-.013.165021-.019.331764-.019.5 0 3.58985 2.91 6.5 6.5 6.5s6.5-2.91015 6.5-6.5c0-.168236-.006-.334979-.019-.5h12.019v12.0189c-.165-.0125-.332-.0189-.5-.0189-3.59 0-6.5 2.9101-6.5 6.5s2.91 6.5 6.5 6.5c.168 0 .335-.0064.5-.0189v9.0378c-.165-.0125-.332-.0189-.5-.0189-3.59 0-6.5 2.9101-6.5 6.5s2.91 6.5 6.5 6.5c.168 0 .335-.0064.5-.0189v9.0378c-.165-.0125-.332-.0189-.5-.0189-3.59 0-6.5 2.9101-6.5 6.5s2.91 6.5 6.5 6.5c.168 0 .335-.0064.5-.0189v9.0378c-.165-.0125-.332-.0189-.5-.0189-3.59 0-6.5 2.9101-6.5 6.5s2.91 6.5 6.5 6.5c.168 0 .335-.0064.5-.0189v9.0379c-.165-.013-.332-.019-.5-.019-3.59 0-6.5 2.91-6.5 6.5s2.91 6.5 6.5 6.5c.168 0 .335-.006.5-.019v9.038c-.165-.013-.332-.019-.5-.019-3.59 0-6.5 2.91-6.5 6.5s2.91 6.5 6.5 6.5c.168 0 .335-.006.5-.019v9.038c-.165-.013-.332-.019-.5-.019-3.59 0-6.5 2.91-6.5 6.5s2.91 6.5 6.5 6.5c.168 0 .335-.006.5-.019v9.038c-.165-.013-.332-.019-.5-.019-3.59 0-6.5 2.91-6.5 6.5s2.91 6.5 6.5 6.5c.168 0 .335-.006.5-.019v9.019h-12.019c-.255-3.356-3.059-6-6.481-6s-6.226 2.644-6.481 6h-9.038c-.255-3.356-3.059-6-6.481-6s-6.226 2.644-6.481 6h-9.038c-.255-3.356-3.059-6-6.481-6s-6.2257 2.644-6.4811 6h-9.0378c-.2554-3.356-3.0595-6-6.4811-6s-6.2257 2.644-6.4811 6h-9.0378c-.2554-3.356-3.0595-6-6.4811-6s-6.2257 2.644-6.4811 6h-9.0378c-.2554-3.356-3.0595-6-6.4811-6s-6.2257 2.644-6.4811 6h-9.0378c-.2554-3.356-3.0595-6-6.4811-6s-6.2257 2.644-6.4811 6h-11.0189v-9.019c.165021.013.331764.019.5.019 3.58985 0 6.5-2.91 6.5-6.5s-2.91015-6.5-6.5-6.5c-.168236 0-.334979.006-.5.019v-9.038c.165021.013.331764.019.5.019 3.58985 0 6.5-2.91 6.5-6.5s-2.91015-6.5-6.5-6.5c-.168236 0-.334979.006-.5.019v-9.038c.165021.013.331764.019.5.019 3.58985 0 6.5-2.91 6.5-6.5s-2.91015-6.5-6.5-6.5c-.168236 0-.334979.006-.5.019v-9.038c.165021.013.331764.019.5.019 3.58985 0 6.5-2.91 6.5-6.5s-2.91015-6.5-6.5-6.5c-.168236 0-.334979.006-.5.019v-9.0379c.165021.0125.331764.0189.5.0189 3.58985 0 6.5-2.9101 6.5-6.5s-2.91015-6.5-6.5-6.5c-.168236 0-.334979.0064-.5.0189v-9.0378c.165021.0125.331764.0189.5.0189 3.58985 0 6.5-2.9101 6.5-6.5s-2.91015-6.5-6.5-6.5c-.168236 0-.334979.0064-.5.0189v-9.0378c.165021.0125.331764.0189.5.0189 3.58985 0 6.5-2.9101 6.5-6.5s-2.91015-6.5-6.5-6.5c-.168236 0-.334979.0064-.5.0189v-9.0378c.165021.0125.331764.0189.5.0189 3.58985 0 6.5-2.9101 6.5-6.5s-2.91015-6.5-6.5-6.5c-.168236 0-.334979.0064-.5.0189v-12.0189h11.0189c-.0125.165021-.0189.331764-.0189.5 0 3.58985 2.9101 6.5 6.5 6.5z" fill="#fff"/><g clip-path="url(#b)"><rect fill="#a5d6d0" height="156" rx="4" width="140" x="14" y="16"/><circle cx="34" cy="84" fill="#9b7963" r="14"/><circle cx="34" cy="84" fill="#3b2f1e" r="10"/><circle cx="134" cy="84" fill="#9b7963" r="14"/><circle cx="134" cy="84" fill="#3b2f1e" r="10"/><path d="m82.1607 48.0612c-.0389-2.1952 1.3967-4.013 3.2067-4.0603 1.8099-.0472 3.3087 1.694 3.3477 3.8892l.0553 3.1152.8705-2.9008c.6192-2.0633 2.5002-3.1271 4.2014-2.3761 1.7012.7509 2.5783 3.0323 1.9591 5.0956l-2.9896 9.9622c-.6192 2.0633-2.5002 3.1271-4.2014 2.3761-.5447-.2404-1.0048-.6377-1.3585-1.1345-.4593.3188-.989.5069-1.5553.5217-.4641.0121-.9077-.0934-1.3115-.2939-.3021 1.1213-1.0107 2.0688-1.9955 2.5036-1.7012.7509-3.5822-.3129-4.2014-2.3762l-2.9896-9.9622c-.6192-2.0633.2579-4.3447 1.9591-5.0956 1.7012-.751 3.5822.3128 4.2014 2.3761l.883 2.9424z" fill="#9b7963"/><ellipse cx="84" cy="106" fill="#9b7963" rx="55" ry="51"/><path clip-rule="evenodd" d="m31.9126 122.419c5.3112-9.197 15.4918-15.419 27.1783-15.419 6.568 0 12.6603 1.965 17.6799 5.319 4.6592 3.114 11.7992 3.114 16.4585 0 5.0196-3.354 11.1117-5.319 17.6797-5.319 10.795 0 20.304 5.308 25.879 13.367-6.691 21.171-27.792 36.633-52.788 36.633-24.1806 0-44.7167-14.47-52.0874-34.581z" fill="#f5e8cf" fill-rule="evenodd"/><path d="m77 124.5 3.5 1 5-2.5 4.5 2.5 4-1-.3503 4.028c-.3676 4.228-3.9064 7.472-8.1497 7.472s-7.7821-3.244-8.1497-7.472z" fill="#feb1aa"/><path d="m85.5 111.437v8.878c0 2.9 2.3505 5.25 5.25 5.25h.7334c2.4945 0 4.5166-2.022 4.5166-4.516" stroke="#3b2f1e" stroke-linecap="round" stroke-linejoin="round" stroke-width="2.5"/><path d="m85.5 111.437v8.878c0 2.9-2.3505 5.25-5.25 5.25h-.7334c-2.4945 0-4.5166-2.022-4.5166-4.516" stroke="#3b2f1e" stroke-linecap="round" stroke-linejoin="round" stroke-width="2.5"/><path d="m95.7781 112.231c0 3.308-4.6513 5.989-10.389 5.989-5.7378 0-10.3891-2.681-10.3891-5.989 0-3.307 4.6513-8.231 10.3891-8.231 5.7377 0 10.389 4.924 10.389 8.231z" fill="#3b2f1e"/><ellipse cx="80" cy="109.5" fill="#fff" rx="2" ry="1.5" transform="matrix(.90224914 -.43121513 .43121513 .90224914 -39.397988 45.200929)"/><ellipse cx="53.5" cy="113" fill="#ffceb9" rx="5.5" ry="3"/><ellipse cx="115.5" cy="113" fill="#ffceb9" rx="5.5" ry="3"/><circle cx="54.5" cy="103.5" fill="#3b2f1e" r="7.5"/><circle cx="51.5" cy="101.5" fill="#fff" r="2.5"/><circle cx="54.5" cy="105.5" fill="#fff" r="1.5"/><circle cx="113.5" cy="103.5" fill="#3b2f1e" r="7.5"/><circle cx="110.5" cy="101.5" fill="#fff" r="2.5"/><circle cx="113.5" cy="105.5" fill="#fff" r="1.5"/><path d="m49.735 118.947-22-2m22.7631 6.473-22.7631 1.527m23.8071 2.759-22.8071 5.241" stroke="#3b2f1e" stroke-linecap="round" stroke-width="2"/><path d="m119.265 118.947 22-2m-22.763 6.473 22.763 1.527m-23.807 2.759 22.807 5.241" stroke="#3b2f1e" stroke-linecap="round" stroke-width="2"/><g stroke="#fff"><circle cx="107.5" cy="76.5" r="3.75" stroke-width="1.5"/><circle cx="117" cy="62" r="5" stroke-width="2"/><circle cx="126.5" cy="44.5" r="6.25" stroke-width="2.5"/></g><path d="m24.8575.834785c1.0845-.638015 2.0985-1.3441 3.0352-2.105975 2.7065 1.2369874 5.8359 1.939945 9.1069 1.939945 2.6795 0 5.2538-.450783 7.5835-1.287415-6.2579 8.58012-17.6208 28.97446-4.6652 51.00956 14.2725 24.2756 2.7929 45.743-3.2654 54.3581-.3522.5-1.3365.186-1.1268-.36 3.1766-8.2763 3.6951-27.6982-10.6682-50.6602-12.9201-20.6549-6.6908-40.2334-3.7458-51.06386 1.3026-.52131 2.5556-1.13032 3.7458-1.830155z" fill="#017b4e"/><path d="m44.2458 2.00004c.7203 7.23417 2.7013 15.68876 7.1234 24.53996 10.8627 21.742-4.1777 50.2397-8.2702 57.2787-.227.3907-.8446.2119-.8116-.235.4758-6.483 1.2456-28.8666-8.3211-50.35-4.2029-9.4388-3.4192-19.5365-.8633-28.39154 3.9573-.17459 7.7401-1.15791 11.1428-2.84212z" fill="#09a76d"/><path d="m124.577 174.538c-.573.272-1.108.574-1.603.9-1.429-.529-3.082-.83-4.81-.83-1.415 0-2.775.193-4.005.551 3.305-3.669 9.307-12.389 2.464-21.81-7.539-10.379-1.475-19.558 1.724-23.242.186-.214.706-.079.596.154-1.678 3.539-1.952 11.843 5.634 21.661 6.824 8.831 3.534 17.202 1.979 21.833-.688.223-1.35.483-1.979.783z" fill="#017b4e"/><path d="m115.25 174.029c-.655.294-1.268.62-1.835.971-1.636-.57-3.527-.894-5.505-.894-1.619 0-3.176.207-4.584.593 3.783-3.956 10.652-13.36 2.82-23.52-8.6274-11.193-1.688-21.091 1.974-25.063.213-.231.808-.086.681.166-1.92 3.816-2.233 12.771 6.449 23.358 7.81 9.524 4.045 18.551 2.264 23.545-.787.24-1.544.521-2.264.844z" fill="#02905d"/><path d="m129.996 175.075c.38-3.093 1.427-6.708 3.762-10.493 5.738-9.296-2.206-21.48-4.368-24.49-.12-.167-.446-.091-.428.101.251 2.771.658 12.342-4.395 21.527-2.22 4.036-1.806 8.354-.456 12.14 2.09.074 4.088.495 5.885 1.215z" fill="#09a76d"/></g><path d="m14 16h140v156h-140z" fill="url(#a)"/></svg>